RubikHebrew-Regular.ufo
<glyph name="less" format="1">
  <advance width="491"/>
  <unicode hex="003C"/>
  <outline>
    <contour>
      <point x="413" y="72"/>
      <point x="422" y="80"/>
      <point x="422" y="93" type="curve" smooth="yes"/>
      <point x="422" y="134" type="line" smooth="yes"/>
      <point x="422" y="149"/>
      <point x="415" y="156"/>
      <point x="399" y="167" type="curve" smooth="yes"/>
      <point x="129" y="352" type="line"/>
      <point x="399" y="537" type="line" smooth="yes"/>
      <point x="415" y="547"/>
      <point x="422" y="555"/>
      <point x="422" y="570" type="curve" smooth="yes"/>
      <point x="422" y="611" type="line" smooth="yes"/>
      <point x="422" y="624"/>
      <point x="413" y="631"/>
      <point x="402" y="631" type="curve" smooth="yes"/>
      <point x="394" y="631"/>
      <point x="383" y="624"/>
      <point x="378" y="621" type="curve" smooth="yes"/>
      <point x="65" y="406" type="line" smooth="yes"/>
      <point x="45" y="391"/>
      <point x="36" y="379"/>
      <point x="36" y="360" type="curve" smooth="yes"/>
      <point x="36" y="343" type="line" smooth="yes"/>
      <point x="36" y="325"/>
      <point x="45" y="312"/>
      <point x="65" y="298" type="curve" smooth="yes"/>
      <point x="378" y="83" type="line" smooth="yes"/>
      <point x="383" y="79"/>
      <point x="394" y="72"/>
      <point x="402" y="72" type="curve" smooth="yes"/>
    </contour>
  </outline>
</glyph>
<glyph name="J" format="1">
  <advance width="632"/>
  <unicode hex="004A"/>
  <outline>
    <contour>
      <point x="456" y="-10"/>
      <point x="550" y="95"/>
      <point x="550" y="256" type="curve" smooth="yes"/>
      <point x="550" y="676" type="line" smooth="yes"/>
      <point x="550" y="691"/>
      <point x="541" y="700"/>
      <point x="527" y="700" type="curve" smooth="yes"/>
      <point x="98" y="700" type="line" smooth="yes"/>
      <point x="84" y="700"/>
      <point x="75" y="691"/>
      <point x="75" y="677" type="curve" smooth="yes"/>
      <point x="75" y="639" type="line" smooth="yes"/>
      <point x="75" y="626"/>
      <point x="84" y="616"/>
      <point x="98" y="616" type="curve" smooth="yes"/>
      <point x="455" y="616" type="line"/>
      <point x="455" y="258" type="line" smooth="yes"/>
      <point x="455" y="147"/>
      <point x="399" y="73"/>
      <point x="296" y="73" type="curve" smooth="yes"/>
      <point x="214" y="73"/>
      <point x="145" y="109"/>
      <point x="136" y="200" type="curve" smooth="yes"/>
      <point x="134" y="214"/>
      <point x="125" y="223"/>
      <point x="111" y="223" type="curve" smooth="yes"/>
      <point x="60" y="223" type="line" smooth="yes"/>
      <point x="47" y="223"/>
      <point x="39" y="213"/>
      <point x="39" y="201" type="curve" smooth="yes"/>
      <point x="44" y="56"/>
      <point x="159" y="-10"/>
      <point x="294" y="-10" type="curve" smooth="yes"/>
    </contour>
  </outline>
</glyph>
<glyph name="N" format="1">
  <advance width="693"/>
  <unicode hex="004E"/>
  <outline>
    <contour>
      <point x="155" y="0" type="line" smooth="yes"/>
      <point x="169" y="0"/>
      <point x="179" y="10"/>
      <point x="179" y="23" type="curve" smooth="yes"/>
      <point x="179" y="525" type="line"/>
      <point x="514" y="14" type="line" smooth="yes"/>
      <point x="516" y="10"/>
      <point x="523" y="0"/>
      <point x="538" y="0" type="curve" smooth="yes"/>
      <point x="583" y="0" type="line" smooth="yes"/>
      <point x="596" y="0"/>
      <point x="605" y="10"/>
      <point x="605" y="24" type="curve" smooth="yes"/>
      <point x="605" y="676" type="line" smooth="yes"/>
      <point x="605" y="691"/>
      <point x="596" y="700"/>
      <point x="582" y="700" type="curve" smooth="yes"/>
      <point x="537" y="700" type="line" smooth="yes"/>
      <point x="523" y="700"/>
      <point x="514" y="691"/>
      <point x="514" y="676" type="curve" smooth="yes"/>
      <point x="514" y="170" type="line"/>
      <point x="178" y="686" type="line" smooth="yes"/>
      <point x="176" y="690"/>
      <point x="169" y="700"/>
      <point x="154" y="700" type="curve" smooth="yes"/>
      <point x="110" y="700" type="line" smooth="yes"/>
      <point x="97" y="700"/>
      <point x="87" y="691"/>
      <point x="87" y="676" type="curve" smooth="yes"/>
      <point x="87" y="23" type="line" smooth="yes"/>
      <point x="87" y="10"/>
      <point x="97" y="0"/>
      <point x="110" y="0" type="curve" smooth="yes"/>
    </contour>
  </outline>
</glyph>
<glyph name="S" format="1">
  <advance width="620"/>
  <unicode hex="0053"/>
  <outline>
    <contour>
      <point x="472" y="-10"/>
      <point x="576" y="63"/>
      <point x="576" y="189" type="curve" smooth="yes"/>
      <point x="576" y="302"/>
      <point x="504" y="344"/>
      <point x="346" y="388" type="curve" smooth="yes"/>
      <point x="211" y="428"/>
      <point x="158" y="453"/>
      <point x="158" y="523" type="curve" smooth="yes"/>
      <point x="158" y="594"/>
      <point x="218" y="628"/>
      <point x="306" y="628" type="curve" smooth="yes"/>
      <point x="392" y="628"/>
      <point x="451" y="585"/>
      <point x="459" y="529" type="curve" smooth="yes"/>
      <point x="463" y="514"/>
      <point x="475" y="509"/>
      <point x="484" y="509" type="curve" smooth="yes"/>
      <point x="534" y="509" type="line" smooth="yes"/>
      <point x="547" y="509"/>
      <point x="555" y="519"/>
      <point x="555" y="530" type="curve" smooth="yes"/>
      <point x="552" y="608"/>
      <point x="471" y="710"/>
      <point x="306" y="710" type="curve" smooth="yes"/>
      <point x="152" y="710"/>
      <point x="63" y="629"/>
      <point x="63" y="522" type="curve" smooth="yes"/>
      <point x="63" y="408"/>
      <point x="132" y="363"/>
      <point x="277" y="321" type="curve" smooth="yes"/>
      <point x="418" y="279"/>
      <point x="480" y="256"/>
      <point x="480" y="186" type="curve" smooth="yes"/>
      <point x="480" y="117"/>
      <point x="427" y="73"/>
      <point x="311" y="73" type="curve" smooth="yes"/>
      <point x="197" y="73"/>
      <point x="148" y="127"/>
      <point x="138" y="176" type="curve" smooth="yes"/>
      <point x="134" y="187"/>
      <point x="127" y="196"/>
      <point x="113" y="196" type="curve" smooth="yes"/>
      <point x="64" y="196" type="line" smooth="yes"/>
      <point x="52" y="196"/>
      <point x="43" y="187"/>
      <point x="43" y="176" type="curve" smooth="yes"/>
      <point x="46" y="81"/>
      <point x="139" y="-10"/>
      <point x="311" y="-10" type="curve" smooth="yes"/>
    </contour>
  </outline>
</glyph>
<glyph name="U" format="1">
  <advance width="700"/>
  <unicode hex="0055"/>
  <outline>
    <contour>
      <point x="518" y="-10"/>
      <point x="618" y="77"/>
      <point x="618" y="270" type="curve" smooth="yes"/>
      <point x="618" y="676" type="line" smooth="yes"/>
      <point x="618" y="691"/>
      <point x="609" y="700"/>
      <point x="595" y="700" type="curve" smooth="yes"/>
      <point x="548" y="700" type="line" smooth="yes"/>
      <point x="534" y="700"/>
      <point x="524" y="691"/>
      <point x="524" y="676" type="curve" smooth="yes"/>
      <point x="524" y="268" type="line" smooth="yes"/>
      <point x="524" y="135"/>
      <point x="457" y="74"/>
      <point x="350" y="74" type="curve" smooth="yes"/>
      <point x="242" y="74"/>
      <point x="175" y="135"/>
      <point x="175" y="268" type="curve" smooth="yes"/>
      <point x="175" y="676" type="line" smooth="yes"/>
      <point x="175" y="691"/>
      <point x="166" y="700"/>
      <point x="152" y="700" type="curve" smooth="yes"/>
      <point x="104" y="700" type="line" smooth="yes"/>
      <point x="91" y="700"/>
      <point x="81" y="691"/>
      <point x="81" y="676" type="curve" smooth="yes"/>
      <point x="81" y="270" type="line" smooth="yes"/>
      <point x="81" y="77"/>
      <point x="183" y="-10"/>
      <point x="350" y="-10" type="curve" smooth="yes"/>
    </contour>
  </outline>
</glyph>
<glyph name="Z" format="1">
  <advance width="598"/>
  <unicode hex="005A"/>
  <outline>
    <contour>
      <point x="534" y="0" type="line" smooth="yes"/>
      <point x="548" y="0"/>
      <point x="558" y="10"/>
      <point x="558" y="23" type="curve" smooth="yes"/>
      <point x="558" y="61" type="line" smooth="yes"/>
      <point x="558" y="75"/>
      <point x="548" y="84"/>
      <point x="534" y="84" type="curve" smooth="yes"/>
      <point x="163" y="84" type="line"/>
      <point x="534" y="601" type="line" smooth="yes"/>
      <point x="541" y="609"/>
      <point x="547" y="620"/>
      <point x="547" y="636" type="curve" smooth="yes"/>
      <point x="547" y="676" type="line" smooth="yes"/>
      <point x="547" y="691"/>
      <point x="538" y="700"/>
      <point x="523" y="700" type="curve" smooth="yes"/>
      <point x="73" y="700" type="line" smooth="yes"/>
      <point x="60" y="700"/>
      <point x="50" y="691"/>
      <point x="50" y="676" type="curve" smooth="yes"/>
      <point x="50" y="639" type="line" smooth="yes"/>
      <point x="50" y="626"/>
      <point x="60" y="616"/>
      <point x="73" y="616" type="curve" smooth="yes"/>
      <point x="431" y="616" type="line"/>
      <point x="56" y="102" type="line" smooth="yes"/>
      <point x="52" y="96"/>
      <point x="41" y="84"/>
      <point x="41" y="64" type="curve" smooth="yes"/>
      <point x="41" y="24" type="line" smooth="yes"/>
      <point x="41" y="10"/>
      <point x="51" y="0"/>
      <point x="64" y="0" type="curve" smooth="yes"/>
    </contour>
  </outline>
</glyph>
<glyph name="grave" format="1">
  <advance width="334"/>
  <unicode hex="0060"/>
  <outline>
    <contour>
      <point x="251" y="595" type="line" smooth="yes"/>
      <point x="261" y="595"/>
      <point x="267" y="601"/>
      <point x="267" y="611" type="curve" smooth="yes"/>
      <point x="267" y="616"/>
      <point x="265" y="621"/>
      <point x="262" y="624" type="curve" smooth="yes"/>
      <point x="188" y="714" type="line"/>
      <point x="177" y="727"/>
      <point x="170" y="732"/>
      <point x="151" y="732" type="curve" smooth="yes"/>
      <point x="86" y="732" type="line" smooth="yes"/>
      <point x="74" y="732"/>
      <point x="67" y="725"/>
      <point x="67" y="713" type="curve" smooth="yes"/>
      <point x="67" y="708"/>
      <point x="69" y="704"/>
      <point x="72" y="701" type="curve" smooth="yes"/>
      <point x="187" y="606" type="line" smooth="yes"/>
      <point x="198" y="597"/>
      <point x="206" y="595"/>
      <point x="220" y="595" type="curve" smooth="yes"/>
    </contour>
  </outline>
</glyph>
<glyph name="k" format="1">
  <advance width="513"/>
  <unicode hex="006B"/>
  <outline>
    <contour>
      <point x="142" y="0" type="line" smooth="yes"/>
      <point x="155" y="0"/>
      <point x="165" y="10"/>
      <point x="165" y="23" type="curve" smooth="yes"/>
      <point x="165" y="231" type="line"/>
      <point x="391" y="17" type="line" smooth="yes"/>
      <point x="407" y="3"/>
      <point x="411" y="0"/>
      <point x="431" y="0" type="curve" smooth="yes"/>
      <point x="480" y="0" type="line" smooth="yes"/>
      <point x="492" y="0"/>
      <point x="500" y="9"/>
      <point x="500" y="21" type="curve" smooth="yes"/>
      <point x="500" y="26"/>
      <point x="497" y="32"/>
      <point x="489" y="40" type="curve" smooth="yes"/>
      <point x="230" y="288" type="line"/>
      <point x="464" y="480" type="line" smooth="yes"/>
      <point x="473" y="487"/>
      <point x="476" y="494"/>
      <point x="476" y="499" type="curve" smooth="yes"/>
      <point x="476" y="512"/>
      <point x="467" y="520"/>
      <point x="455" y="520" type="curve" smooth="yes"/>
      <point x="405" y="520" type="line" smooth="yes"/>
      <point x="386" y="520"/>
      <point x="382" y="516"/>
      <point x="366" y="503" type="curve" smooth="yes"/>
      <point x="165" y="338" type="line"/>
      <point x="165" y="687" type="line" smooth="yes"/>
      <point x="165" y="701"/>
      <point x="155" y="710"/>
      <point x="142" y="710" type="curve" smooth="yes"/>
      <point x="99" y="710" type="line" smooth="yes"/>
      <point x="86" y="710"/>
      <point x="76" y="701"/>
      <point x="76" y="687" type="curve" smooth="yes"/>
      <point x="76" y="23" type="line" smooth="yes"/>
      <point x="76" y="10"/>
      <point x="86" y="0"/>
      <point x="99" y="0" type="curve" smooth="yes"/>
    </contour>
  </outline>
</glyph>
<glyph name="l" format="1">
  <advance width="241"/>
  <unicode hex="006C"/>
  <outline>
    <contour>
      <point x="143" y="0" type="line" smooth="yes"/>
      <point x="156" y="0"/>
      <point x="166" y="10"/>
      <point x="166" y="23" type="curve" smooth="yes"/>
      <point x="166" y="687" type="line" smooth="yes"/>
      <point x="166" y="701"/>
      <point x="156" y="710"/>
      <point x="143" y="710" type="curve" smooth="yes"/>
      <point x="99" y="710" type="line" smooth="yes"/>
      <point x="86" y="710"/>
      <point x="76" y="701"/>
      <point x="76" y="687" type="curve" smooth="yes"/>
      <point x="76" y="23" type="line" smooth="yes"/>
      <point x="76" y="10"/>
      <point x="86" y="0"/>
      <point x="99" y="0" type="curve" smooth="yes"/>
    </contour>
  </outline>
</glyph>
<glyph name="p" format="1">
  <advance width="594"/>
  <unicode hex="0070"/>
  <outline>
    <contour>
      <point x="144" y="-190" type="line" smooth="yes"/>
      <point x="157" y="-190"/>
      <point x="167" y="-181"/>
      <point x="167" y="-167" type="curve" smooth="yes"/>
      <point x="167" y="66" type="line"/>
      <point x="199" y="22"/>
      <point x="250" y="-10"/>
      <point x="329" y="-10" type="curve" smooth="yes"/>
      <point x="478" y="-10"/>
      <point x="538" y="102"/>
      <point x="542" y="226" type="curve" smooth="yes"/>
      <point x="544" y="248"/>
      <point x="544" y="272"/>
      <point x="542" y="294" type="curve" smooth="yes"/>
      <point x="538" y="419"/>
      <point x="478" y="530"/>
      <point x="329" y="530" type="curve" smooth="yes"/>
      <point x="248" y="530"/>
      <point x="197" y="497"/>
      <point x="164" y="453" type="curve"/>
      <point x="164" y="497" type="line" smooth="yes"/>
      <point x="164" y="511"/>
      <point x="155" y="520"/>
      <point x="141" y="520" type="curve" smooth="yes"/>
      <point x="99" y="520" type="line" smooth="yes"/>
      <point x="86" y="520"/>
      <point x="76" y="511"/>
      <point x="76" y="497" type="curve" smooth="yes"/>
      <point x="76" y="-167" type="line" smooth="yes"/>
      <point x="76" y="-181"/>
      <point x="86" y="-190"/>
      <point x="99" y="-190" type="curve" smooth="yes"/>
    </contour>
    <contour>
      <point x="211" y="68"/>
      <point x="168" y="146"/>
      <point x="166" y="218" type="curve" smooth="yes"/>
      <point x="165" y="240"/>
      <point x="165" y="274"/>
      <point x="166" y="296" type="curve" smooth="yes"/>
      <point x="169" y="370"/>
      <point x="208" y="452"/>
      <point x="310" y="452" type="curve" smooth="yes"/>
      <point x="413" y="452"/>
      <point x="446" y="375"/>
      <point x="450" y="289" type="curve" smooth="yes"/>
      <point x="452" y="269"/>
      <point x="452" y="251"/>
      <point x="450" y="231" type="curve" smooth="yes"/>
      <point x="446" y="145"/>
      <point x="413" y="68"/>
      <point x="310" y="68" type="curve" smooth="yes"/>
    </contour>
  </outline>
</glyph>
<glyph name="r" format="1">
  <advance width="376"/>
  <unicode hex="0072"/>
  <outline>
    <contour>
      <point x="143" y="0" type="line" smooth="yes"/>
      <point x="156" y="0"/>
      <point x="167" y="10"/>
      <point x="167" y="23" type="curve" smooth="yes"/>
      <point x="167" y="318" type="line" smooth="yes"/>
      <point x="167" y="392"/>
      <point x="212" y="437"/>
      <point x="285" y="437" type="curve" smooth="yes"/>
      <point x="342" y="437" type="line" smooth="yes"/>
      <point x="356" y="437"/>
      <point x="365" y="446"/>
      <point x="365" y="460" type="curve" smooth="yes"/>
      <point x="365" y="497" type="line" smooth="yes"/>
      <point x="365" y="511"/>
      <point x="356" y="520"/>
      <point x="342" y="520" type="curve" smooth="yes"/>
      <point x="303" y="520" type="line" smooth="yes"/>
      <point x="238" y="520"/>
      <point x="191" y="497"/>
      <point x="164" y="452" type="curve"/>
      <point x="164" y="496" type="line" smooth="yes"/>
      <point x="164" y="510"/>
      <point x="154" y="520"/>
      <point x="140" y="520" type="curve" smooth="yes"/>
      <point x="98" y="520" type="line" smooth="yes"/>
      <point x="85" y="520"/>
      <point x="75" y="510"/>
      <point x="75" y="496" type="curve" smooth="yes"/>
      <point x="75" y="23" type="line" smooth="yes"/>
      <point x="75" y="10"/>
      <point x="85" y="0"/>
      <point x="98" y="0" type="curve" smooth="yes"/>
    </contour>
  </outline>
</glyph>
<glyph name="u" format="1">
  <advance width="600"/>
  <unicode hex="0075"/>
  <outline>
    <contour>
      <point x="353" y="-10"/>
      <point x="400" y="20"/>
      <point x="436" y="68" type="curve"/>
      <point x="436" y="23" type="line" smooth="yes"/>
      <point x="436" y="10"/>
      <point x="445" y="0"/>
      <point x="459" y="0" type="curve" smooth="yes"/>
      <point x="502" y="0" type="line" smooth="yes"/>
      <point x="515" y="0"/>
      <point x="525" y="10"/>
      <point x="525" y="23" type="curve" smooth="yes"/>
      <point x="525" y="497" type="line" smooth="yes"/>
      <point x="525" y="511"/>
      <point x="515" y="520"/>
      <point x="502" y="520" type="curve" smooth="yes"/>
      <point x="456" y="520" type="line" smooth="yes"/>
      <point x="443" y="520"/>
      <point x="433" y="511"/>
      <point x="433" y="497" type="curve" smooth="yes"/>
      <point x="433" y="220" type="line" smooth="yes"/>
      <point x="433" y="125"/>
      <point x="379" y="68"/>
      <point x="294" y="68" type="curve" smooth="yes"/>
      <point x="206" y="68"/>
      <point x="162" y="120"/>
      <point x="162" y="220" type="curve" smooth="yes"/>
      <point x="162" y="497" type="line" smooth="yes"/>
      <point x="162" y="511"/>
      <point x="152" y="520"/>
      <point x="139" y="520" type="curve" smooth="yes"/>
      <point x="93" y="520" type="line" smooth="yes"/>
      <point x="80" y="520"/>
      <point x="70" y="511"/>
      <point x="70" y="497" type="curve" smooth="yes"/>
      <point x="70" y="215" type="line"/>
      <point x="70" y="82"/>
      <point x="139" y="-10"/>
      <point x="269" y="-10" type="curve" smooth="yes"/>
    </contour>
  </outline>
</glyph>
<glyph name="v" format="1">
  <advance width="552"/>
  <unicode hex="0076"/>
  <outline>
    <contour>
      <point x="295" y="0" type="line" smooth="yes"/>
      <point x="316" y="0"/>
      <point x="327" y="11"/>
      <point x="333" y="25" type="curve"/>
      <point x="518" y="489" type="line" smooth="yes"/>
      <point x="519" y="492"/>
      <point x="520" y="497"/>
      <point x="520" y="499" type="curve" smooth="yes"/>
      <point x="520" y="511"/>
      <point x="510" y="520"/>
      <point x="499" y="520" type="curve" smooth="yes"/>
      <point x="453" y="520" type="line" smooth="yes"/>
      <point x="439" y="520"/>
      <point x="432" y="510"/>
      <point x="430" y="504" type="curve" smooth="yes"/>
      <point x="275" y="105" type="line"/>
      <point x="121" y="504" type="line" smooth="yes"/>
      <point x="119" y="510"/>
      <point x="112" y="520"/>
      <point x="97" y="520" type="curve" smooth="yes"/>
      <point x="52" y="520" type="line" smooth="yes"/>
      <point x="40" y="520"/>
      <point x="31" y="511"/>
      <point x="31" y="499" type="curve" smooth="yes"/>
      <point x="31" y="497"/>
      <point x="32" y="492"/>
      <point x="33" y="489" type="curve" smooth="yes"/>
      <point x="218" y="25" type="line"/>
      <point x="224" y="11"/>
      <point x="235" y="0"/>
      <point x="255" y="0" type="curve" smooth="yes"/>
    </contour>
  </outline>
</glyph>
<glyph name="w" format="1">
  <advance width="800"/>
  <unicode hex="0077"/>
  <outline>
    <contour>
      <point x="249" y="0" type="line" smooth="yes"/>
      <point x="268" y="0"/>
      <point x="278" y="9"/>
      <point x="283" y="25" type="curve" smooth="yes"/>
      <point x="400" y="387" type="line"/>
      <point x="517" y="25" type="line" smooth="yes"/>
      <point x="522" y="9"/>
      <point x="533" y="0"/>
      <point x="551" y="0" type="curve" smooth="yes"/>
      <point x="587" y="0" type="line" smooth="yes"/>
      <point x="606" y="0"/>
      <point x="614" y="9"/>
      <point x="620" y="25" type="curve" smooth="yes"/>
      <point x="761" y="489" type="line" smooth="yes"/>
      <point x="762" y="492"/>
      <point x="763" y="497"/>
      <point x="763" y="499" type="curve" smooth="yes"/>
      <point x="763" y="511"/>
      <point x="754" y="520"/>
      <point x="743" y="520" type="curve" smooth="yes"/>
      <point x="701" y="520" type="line" smooth="yes"/>
      <point x="687" y="520"/>
      <point x="678" y="510"/>
      <point x="677" y="504" type="curve" smooth="yes"/>
      <point x="564" y="122" type="line"/>
      <point x="444" y="499" type="line" smooth="yes"/>
      <point x="442" y="508"/>
      <point x="434" y="520"/>
      <point x="416" y="520" type="curve" smooth="yes"/>
      <point x="384" y="520" type="line" smooth="yes"/>
      <point x="367" y="520"/>
      <point x="358" y="508"/>
      <point x="356" y="499" type="curve" smooth="yes"/>
      <point x="236" y="122" type="line"/>
      <point x="123" y="504" type="line" smooth="yes"/>
      <point x="122" y="510"/>
      <point x="113" y="520"/>
      <point x="99" y="520" type="curve" smooth="yes"/>
      <point x="58" y="520" type="line" smooth="yes"/>
      <point x="46" y="520"/>
      <point x="37" y="511"/>
      <point x="37" y="499" type="curve" smooth="yes"/>
      <point x="37" y="497"/>
      <point x="38" y="492"/>
      <point x="39" y="489" type="curve" smooth="yes"/>
      <point x="181" y="25" type="line" smooth="yes"/>
      <point x="186" y="9"/>
      <point x="194" y="0"/>
      <point x="213" y="0" type="curve" smooth="yes"/>
    </contour>
  </outline>
</glyph>
<glyph name="logicalnot" format="1">
  <advance width="578"/>
  <unicode hex="00AC"/>
  <outline>
    <contour>
      <point x="483" y="151" type="line" smooth="yes"/>
      <point x="496" y="151"/>
      <point x="506" y="160"/>
      <point x="506" y="173" type="curve" smooth="yes"/>
      <point x="506" y="327" type="line" smooth="yes"/>
      <point x="506" y="341"/>
      <point x="496" y="350"/>
      <point x="483" y="350" type="curve" smooth="yes"/>
      <point x="93" y="350" type="line" smooth="yes"/>
      <point x="80" y="350"/>
      <point x="70" y="341"/>
      <point x="70" y="327" type="curve" smooth="yes"/>
      <point x="70" y="296" type="line" smooth="yes"/>
      <point x="70" y="283"/>
      <point x="80" y="273"/>
      <point x="93" y="273" type="curve" smooth="yes"/>
      <point x="426" y="273" type="line"/>
      <point x="426" y="173" type="line" smooth="yes"/>
      <point x="426" y="160"/>
      <point x="435" y="151"/>
      <point x="449" y="151" type="curve" smooth="yes"/>
    </contour>
  </outline>
</glyph>
<glyph name="registered" format="1">
  <advance width="827"/>
  <unicode hex="00AE"/>
  <outline>
    <contour>
      <point x="612" y="-10"/>
      <point x="773" y="151"/>
      <point x="773" y="350" type="curve" smooth="yes"/>
      <point x="773" y="549"/>
      <point x="612" y="710"/>
      <point x="413" y="710" type="curve" smooth="yes"/>
      <point x="214" y="710"/>
      <point x="53" y="549"/>
      <point x="53" y="350" type="curve" smooth="yes"/>
      <point x="53" y="151"/>
      <point x="214" y="-10"/>
      <point x="413" y="-10" type="curve" smooth="yes"/>
    </contour>
    <contour>
      <point x="251" y="52"/>
      <point x="120" y="187"/>
      <point x="120" y="350" type="curve" smooth="yes"/>
      <point x="120" y="513"/>
      <point x="251" y="648"/>
      <point x="413" y="648" type="curve" smooth="yes"/>
      <point x="576" y="648"/>
      <point x="707" y="513"/>
      <point x="707" y="350" type="curve" smooth="yes"/>
      <point x="707" y="187"/>
      <point x="576" y="52"/>
      <point x="413" y="52" type="curve" smooth="yes"/>
    </contour>
    <contour>
      <point x="326" y="168" type="line" smooth="yes"/>
      <point x="339" y="168"/>
      <point x="348" y="177"/>
      <point x="348" y="190" type="curve" smooth="yes"/>
      <point x="348" y="299" type="line"/>
      <point x="425" y="299" type="line"/>
      <point x="491" y="187" type="line"/>
      <point x="498" y="175"/>
      <point x="506" y="168"/>
      <point x="520" y="168" type="curve" smooth="yes"/>
      <point x="546" y="168" type="line" smooth="yes"/>
      <point x="561" y="168"/>
      <point x="568" y="179"/>
      <point x="568" y="190" type="curve"/>
      <point x="568" y="196"/>
      <point x="566" y="201"/>
      <point x="564" y="204" type="curve" smooth="yes"/>
      <point x="499" y="312" type="line"/>
      <point x="540" y="328"/>
      <point x="568" y="363"/>
      <point x="568" y="417" type="curve" smooth="yes"/>
      <point x="568" y="504"/>
      <point x="504" y="534"/>
      <point x="428" y="534" type="curve" smooth="yes"/>
      <point x="297" y="534" type="line" smooth="yes"/>
      <point x="284" y="534"/>
      <point x="275" y="525"/>
      <point x="275" y="512" type="curve" smooth="yes"/>
      <point x="275" y="190" type="line" smooth="yes"/>
      <point x="275" y="177"/>
      <point x="284" y="168"/>
      <point x="297" y="168" type="curve"/>
    </contour>
    <contour>
      <point x="348" y="470" type="line"/>
      <point x="427" y="470" type="line" smooth="yes"/>
      <point x="480" y="470"/>
      <point x="495" y="444"/>
      <point x="495" y="417" type="curve" smooth="yes"/>
      <point x="495" y="389"/>
      <point x="480" y="364"/>
      <point x="427" y="364" type="curve" smooth="yes"/>
      <point x="348" y="364" type="line"/>
    </contour>
  </outline>
</glyph>
<glyph name="plusminus" format="1">
  <advance width="559"/>
  <unicode hex="00B1"/>
  <outline>
    <contour>
      <point x="297" y="192" type="line" smooth="yes"/>
      <point x="310" y="192"/>
      <point x="320" y="201"/>
      <point x="320" y="215" type="curve" smooth="yes"/>
      <point x="320" y="370" type="line"/>
      <point x="473" y="370" type="line" smooth="yes"/>
      <point x="486" y="370"/>
      <point x="495" y="379"/>
      <point x="495" y="393" type="curve" smooth="yes"/>
      <point x="495" y="423" type="line" smooth="yes"/>
      <point x="495" y="436"/>
      <point x="486" y="445"/>
      <point x="473" y="445" type="curve" smooth="yes"/>
      <point x="320" y="445" type="line"/>
      <point x="320" y="596" type="line" smooth="yes"/>
      <point x="320" y="610"/>
      <point x="310" y="619"/>
      <point x="297" y="619" type="curve" smooth="yes"/>
      <point x="263" y="619" type="line" smooth="yes"/>
      <point x="250" y="619"/>
      <point x="240" y="610"/>
      <point x="240" y="596" type="curve" smooth="yes"/>
      <point x="240" y="445" type="line"/>
      <point x="87" y="445" type="line" smooth="yes"/>
      <point x="74" y="445"/>
      <point x="64" y="436"/>
      <point x="64" y="423" type="curve" smooth="yes"/>
      <point x="64" y="393" type="line" smooth="yes"/>
      <point x="64" y="379"/>
      <point x="74" y="370"/>
      <point x="87" y="370" type="curve" smooth="yes"/>
      <point x="240" y="370" type="line"/>
      <point x="240" y="215" type="line" smooth="yes"/>
      <point x="240" y="201"/>
      <point x="250" y="192"/>
      <point x="263" y="192" type="curve" smooth="yes"/>
    </contour>
    <contour>
      <point x="463" y="0" type="line" smooth="yes"/>
      <point x="476" y="0"/>
      <point x="485" y="10"/>
      <point x="485" y="23" type="curve" smooth="yes"/>
      <point x="485" y="53" type="line" smooth="yes"/>
      <point x="485" y="66"/>
      <point x="476" y="76"/>
      <point x="463" y="76" type="curve" smooth="yes"/>
      <point x="97" y="76" type="line" smooth="yes"/>
      <point x="84" y="76"/>
      <point x="74" y="66"/>
      <point x="74" y="53" type="curve" smooth="yes"/>
      <point x="74" y="23" type="line" smooth="yes"/>
      <point x="74" y="10"/>
      <point x="84" y="0"/>
      <point x="97" y="0" type="curve" smooth="yes"/>
    </contour>
  </outline>
</glyph>
<glyph name="guillemetright" format="1">
  <advance width="608"/>
  <unicode hex="00BB"/>
  <outline>
    <contour>
      <point x="340" y="85"/>
      <point x="348" y="90"/>
      <point x="356" y="96" type="curve" smooth="yes"/>
      <point x="549" y="283" type="line" smooth="yes"/>
      <point x="561" y="295"/>
      <point x="564" y="306"/>
      <point x="565" y="317" type="curve" smooth="yes"/>
      <point x="565" y="341" type="line" smooth="yes"/>
      <point x="564" y="352"/>
      <point x="561" y="363"/>
      <point x="549" y="375" type="curve" smooth="yes"/>
      <point x="356" y="562" type="line" smooth="yes"/>
      <point x="348" y="569"/>
      <point x="340" y="573"/>
      <point x="333" y="573" type="curve" smooth="yes"/>
      <point x="321" y="573"/>
      <point x="313" y="564"/>
      <point x="313" y="552" type="curve" smooth="yes"/>
      <point x="313" y="515" type="line" smooth="yes"/>
      <point x="313" y="498"/>
      <point x="318" y="490"/>
      <point x="331" y="477" type="curve" smooth="yes"/>
      <point x="483" y="329" type="line"/>
      <point x="331" y="181" type="line" smooth="yes"/>
      <point x="318" y="168"/>
      <point x="313" y="161"/>
      <point x="313" y="143" type="curve" smooth="yes"/>
      <point x="313" y="106" type="line" smooth="yes"/>
      <point x="313" y="94"/>
      <point x="321" y="85"/>
      <point x="333" y="85" type="curve" smooth="yes"/>
    </contour>
    <contour>
      <point x="84" y="85"/>
      <point x="92" y="90"/>
      <point x="100" y="96" type="curve" smooth="yes"/>
      <point x="293" y="283" type="line" smooth="yes"/>
      <point x="305" y="295"/>
      <point x="308" y="306"/>
      <point x="309" y="317" type="curve" smooth="yes"/>
      <point x="309" y="341" type="line" smooth="yes"/>
      <point x="308" y="352"/>
      <point x="305" y="363"/>
      <point x="293" y="375" type="curve" smooth="yes"/>
      <point x="100" y="562" type="line" smooth="yes"/>
      <point x="92" y="569"/>
      <point x="84" y="573"/>
      <point x="77" y="573" type="curve" smooth="yes"/>
      <point x="65" y="573"/>
      <point x="57" y="564"/>
      <point x="57" y="552" type="curve" smooth="yes"/>
      <point x="57" y="515" type="line" smooth="yes"/>
      <point x="57" y="498"/>
      <point x="62" y="490"/>
      <point x="75" y="477" type="curve" smooth="yes"/>
      <point x="227" y="329" type="line"/>
      <point x="75" y="181" type="line" smooth="yes"/>
      <point x="62" y="168"/>
      <point x="57" y="161"/>
      <point x="57" y="143" type="curve" smooth="yes"/>
      <point x="57" y="106" type="line" smooth="yes"/>
      <point x="57" y="94"/>
      <point x="65" y="85"/>
      <point x="77" y="85" type="curve" smooth="yes"/>
    </contour>
  </outline>
</glyph>
<glyph name="Oslash" format="1">
  <advance width="698"/>
  <unicode hex="00D8"/>
  <outline>
    <contour>
      <point x="521" y="-10"/>
      <point x="621" y="78"/>
      <point x="626" y="265" type="curve"/>
      <point x="628" y="320"/>
      <point x="628" y="368"/>
      <point x="626" y="424" type="curve"/>
      <point x="665" y="439" type="line"/>
      <point x="681" y="445"/>
      <point x="687" y="450"/>
      <point x="687" y="465" type="curve"/>
      <point x="687" y="499" type="line"/>
      <point x="687" y="511"/>
      <point x="678" y="517"/>
      <point x="667" y="517" type="curve" smooth="yes"/>
      <point x="664" y="517"/>
      <point x="660" y="516"/>
      <point x="655" y="514" type="curve"/>
      <point x="617" y="500" type="line"/>
      <point x="590" y="640"/>
      <point x="491" y="710"/>
      <point x="350" y="710" type="curve" smooth="yes"/>
      <point x="188" y="710"/>
      <point x="80" y="619"/>
      <point x="75" y="434" type="curve" smooth="yes"/>
      <point x="73" y="383"/>
      <point x="72" y="339"/>
      <point x="74" y="288" type="curve"/>
      <point x="33" y="273" type="line"/>
      <point x="17" y="267"/>
      <point x="11" y="262"/>
      <point x="11" y="246" type="curve"/>
      <point x="11" y="212" type="line"/>
      <point x="11" y="200"/>
      <point x="19" y="194"/>
      <point x="30" y="194" type="curve" smooth="yes"/>
      <point x="34" y="194"/>
      <point x="38" y="195"/>
      <point x="43" y="197" type="curve"/>
      <point x="81" y="211" type="line"/>
      <point x="103" y="60"/>
      <point x="197" y="-10"/>
      <point x="350" y="-10" type="curve" smooth="yes"/>
    </contour>
    <contour>
      <point x="254" y="73"/>
      <point x="184" y="124"/>
      <point x="172" y="247" type="curve"/>
      <point x="532" y="387" type="line"/>
      <point x="533" y="346"/>
      <point x="532" y="315"/>
      <point x="531" y="270" type="curve" smooth="yes"/>
      <point x="526" y="131"/>
      <point x="453" y="73"/>
      <point x="351" y="73" type="curve" smooth="yes"/>
    </contour>
    <contour>
      <point x="168" y="361"/>
      <point x="169" y="390"/>
      <point x="171" y="430" type="curve"/>
      <point x="175" y="569"/>
      <point x="249" y="628"/>
      <point x="351" y="628" type="curve" smooth="yes"/>
      <point x="443" y="628"/>
      <point x="512" y="579"/>
      <point x="527" y="465" type="curve"/>
      <point x="169" y="326" type="line"/>
    </contour>
  </outline>
</glyph>
<glyph name="hbar" format="1">
  <advance width="606"/>
  <unicode hex="0127"/>
  <outline>
    <contour>
      <point x="144" y="0" type="line" smooth="yes"/>
      <point x="158" y="0"/>
      <point x="167" y="10"/>
      <point x="167" y="23" type="curve" smooth="yes"/>
      <point x="167" y="300" type="line" smooth="yes"/>
      <point x="167" y="395"/>
      <point x="223" y="452"/>
      <point x="307" y="452" type="curve" smooth="yes"/>
      <point x="396" y="452"/>
      <point x="443" y="395"/>
      <point x="443" y="300" type="curve" smooth="yes"/>
      <point x="443" y="23" type="line" smooth="yes"/>
      <point x="443" y="10"/>
      <point x="453" y="0"/>
      <point x="466" y="0" type="curve" smooth="yes"/>
      <point x="513" y="0" type="line" smooth="yes"/>
      <point x="526" y="0"/>
      <point x="536" y="10"/>
      <point x="536" y="23" type="curve" smooth="yes"/>
      <point x="536" y="306" type="line" smooth="yes"/>
      <point x="536" y="438"/>
      <point x="463" y="530"/>
      <point x="333" y="530" type="curve" smooth="yes"/>
      <point x="251" y="530"/>
      <point x="203" y="499"/>
      <point x="167" y="454" type="curve"/>
      <point x="167" y="566" type="line"/>
      <point x="220" y="566" type="line" smooth="yes"/>
      <point x="233" y="566"/>
      <point x="242" y="575"/>
      <point x="242" y="588" type="curve" smooth="yes"/>
      <point x="242" y="609" type="line" smooth="yes"/>
      <point x="242" y="622"/>
      <point x="233" y="631"/>
      <point x="220" y="631" type="curve" smooth="yes"/>
      <point x="167" y="631" type="line"/>
      <point x="167" y="687" type="line" smooth="yes"/>
      <point x="167" y="701"/>
      <point x="158" y="710"/>
      <point x="144" y="710" type="curve" smooth="yes"/>
      <point x="98" y="710" type="line" smooth="yes"/>
      <point x="84" y="710"/>
      <point x="75" y="701"/>
      <point x="75" y="687" type="curve" smooth="yes"/>
      <point x="75" y="631" type="line"/>
      <point x="22" y="631" type="line" smooth="yes"/>
      <point x="9" y="631"/>
      <point x="-1" y="622"/>
      <point x="-1" y="609" type="curve" smooth="yes"/>
      <point x="-1" y="588" type="line" smooth="yes"/>
      <point x="-1" y="575"/>
      <point x="9" y="566"/>
      <point x="22" y="566" type="curve" smooth="yes"/>
      <point x="75" y="566" type="line"/>
      <point x="75" y="23" type="line" smooth="yes"/>
      <point x="75" y="10"/>
      <point x="84" y="0"/>
      <point x="98" y="0" type="curve" smooth="yes"/>
    </contour>
  </outline>
</glyph>
<glyph name="idotless" format="1">
  <advance width="240"/>
  <unicode hex="0131"/>
  <outline>
    <contour>
      <point x="142" y="0" type="line"/>
      <point x="155" y="0"/>
      <point x="165" y="10"/>
      <point x="165" y="23" type="curve" smooth="yes"/>
      <point x="165" y="497" type="line" smooth="yes"/>
      <point x="165" y="511"/>
      <point x="155" y="520"/>
      <point x="142" y="520" type="curve" smooth="yes"/>
      <point x="98" y="520" type="line" smooth="yes"/>
      <point x="85" y="520"/>
      <point x="75" y="511"/>
      <point x="75" y="497" type="curve" smooth="yes"/>
      <point x="75" y="23" type="line" smooth="yes"/>
      <point x="75" y="10"/>
      <point x="85" y="0"/>
      <point x="98" y="0" type="curve" smooth="yes"/>
    </contour>
  </outline>
</glyph>
<glyph name="OE" format="1">
  <advance width="917"/>
  <unicode hex="0152"/>
  <outline>
    <contour>
      <point x="842" y="0" type="line"/>
      <point x="856" y="0"/>
      <point x="866" y="10"/>
      <point x="866" y="23" type="curve"/>
      <point x="866" y="59" type="line"/>
      <point x="866" y="73"/>
      <point x="856" y="83"/>
      <point x="842" y="83" type="curve"/>
      <point x="530" y="83" type="line"/>
      <point x="530" y="314" type="line"/>
      <point x="812" y="314" type="line"/>
      <point x="826" y="314"/>
      <point x="836" y="323"/>
      <point x="836" y="337" type="curve"/>
      <point x="836" y="371" type="line"/>
      <point x="836" y="385"/>
      <point x="826" y="395"/>
      <point x="812" y="395" type="curve"/>
      <point x="530" y="395" type="line"/>
      <point x="530" y="618" type="line"/>
      <point x="834" y="618" type="line"/>
      <point x="848" y="618"/>
      <point x="858" y="627"/>
      <point x="858" y="640" type="curve"/>
      <point x="858" y="676" type="line"/>
      <point x="858" y="691"/>
      <point x="848" y="700"/>
      <point x="834" y="700" type="curve"/>
      <point x="352" y="700" type="line"/>
      <point x="144" y="700"/>
      <point x="68" y="604"/>
      <point x="64" y="429" type="curve" smooth="yes"/>
      <point x="63" y="370"/>
      <point x="63" y="331"/>
      <point x="64" y="272" type="curve" smooth="yes"/>
      <point x="69" y="87"/>
      <point x="143" y="0"/>
      <point x="347" y="0" type="curve"/>
    </contour>
    <contour>
      <point x="212" y="83"/>
      <point x="162" y="137"/>
      <point x="159" y="276" type="curve" smooth="yes"/>
      <point x="158" y="336"/>
      <point x="158" y="366"/>
      <point x="159" y="425" type="curve" smooth="yes"/>
      <point x="162" y="556"/>
      <point x="216" y="618"/>
      <point x="357" y="618" type="curve"/>
      <point x="438" y="618" type="line"/>
      <point x="438" y="83" type="line"/>
      <point x="352" y="83" type="line"/>
    </contour>
  </outline>
</glyph>
<glyph name="U-cy" format="1">
  <advance width="613"/>
  <unicode hex="0423"/>
  <outline>
    <contour>
      <point x="144" y="0" type="line" smooth="yes"/>
      <point x="263" y="0"/>
      <point x="317" y="109"/>
      <point x="365" y="204" type="curve" smooth="yes"/>
      <point x="604" y="668" type="line" smooth="yes"/>
      <point x="606" y="672"/>
      <point x="607" y="675"/>
      <point x="607" y="680" type="curve" smooth="yes"/>
      <point x="607" y="691"/>
      <point x="598" y="700"/>
      <point x="587" y="700" type="curve" smooth="yes"/>
      <point x="535" y="700" type="line" smooth="yes"/>
      <point x="524" y="700"/>
      <point x="515" y="694"/>
      <point x="510" y="684" type="curve" smooth="yes"/>
      <point x="315" y="309" type="line"/>
      <point x="118" y="684" type="line" smooth="yes"/>
      <point x="113" y="694"/>
      <point x="104" y="700"/>
      <point x="93" y="700" type="curve" smooth="yes"/>
      <point x="41" y="700" type="line" smooth="yes"/>
      <point x="30" y="700"/>
      <point x="20" y="691"/>
      <point x="20" y="679" type="curve" smooth="yes"/>
      <point x="20" y="675"/>
      <point x="21" y="672"/>
      <point x="23" y="668" type="curve" smooth="yes"/>
      <point x="265" y="211" type="line"/>
      <point x="232" y="152"/>
      <point x="202" y="86"/>
      <point x="140" y="86" type="curve" smooth="yes"/>
      <point x="95" y="86" type="line"/>
      <point x="81" y="86"/>
      <point x="72" y="76"/>
      <point x="72" y="62" type="curve" smooth="yes"/>
      <point x="72" y="23" type="line" smooth="yes"/>
      <point x="72" y="10"/>
      <point x="81" y="0"/>
      <point x="95" y="0" type="curve" smooth="yes"/>
    </contour>
  </outline>
</glyph>
<glyph name="pe-cy" format="1">
  <advance width="607"/>
  <unicode hex="043F"/>
  <outline>
    <contour>
      <point x="142" y="0" type="line" smooth="yes"/>
      <point x="155" y="0"/>
      <point x="165" y="10"/>
      <point x="165" y="23" type="curve" smooth="yes"/>
      <point x="165" y="443" type="line"/>
      <point x="443" y="443" type="line"/>
      <point x="443" y="23" type="line" smooth="yes"/>
      <point x="443" y="10"/>
      <point x="452" y="0"/>
      <point x="465" y="0" type="curve" smooth="yes"/>
      <point x="509" y="0" type="line" smooth="yes"/>
      <point x="523" y="0"/>
      <point x="532" y="10"/>
      <point x="532" y="23" type="curve" smooth="yes"/>
      <point x="532" y="497" type="line" smooth="yes"/>
      <point x="532" y="511"/>
      <point x="523" y="520"/>
      <point x="509" y="520" type="curve" smooth="yes"/>
      <point x="98" y="520" type="line" smooth="yes"/>
      <point x="85" y="520"/>
      <point x="75" y="511"/>
      <point x="75" y="497" type="curve" smooth="yes"/>
      <point x="75" y="23" type="line" smooth="yes"/>
      <point x="75" y="10"/>
      <point x="85" y="0"/>
      <point x="98" y="0" type="curve" smooth="yes"/>
    </contour>
  </outline>
</glyph>
<glyph name="u-cy" format="1">
  <advance width="547"/>
  <unicode hex="0443"/>
  <outline>
    <contour>
      <point x="135" y="-190" type="line" smooth="yes"/>
      <point x="237" y="-190"/>
      <point x="282" y="-64"/>
      <point x="323" y="32" type="curve" smooth="yes"/>
      <point x="514" y="482" type="line" smooth="yes"/>
      <point x="518" y="491"/>
      <point x="520" y="495"/>
      <point x="520" y="500" type="curve" smooth="yes"/>
      <point x="520" y="511"/>
      <point x="510" y="520"/>
      <point x="499" y="520" type="curve" smooth="yes"/>
      <point x="456" y="520" type="line" smooth="yes"/>
      <point x="442" y="520"/>
      <point x="436" y="513"/>
      <point x="432" y="504" type="curve" smooth="yes"/>
      <point x="276" y="136" type="line"/>
      <point x="120" y="504" type="line" smooth="yes"/>
      <point x="116" y="512"/>
      <point x="110" y="520"/>
      <point x="96" y="520" type="curve" smooth="yes"/>
      <point x="52" y="520" type="line" smooth="yes"/>
      <point x="41" y="520"/>
      <point x="31" y="511"/>
      <point x="31" y="499" type="curve" smooth="yes"/>
      <point x="31" y="495"/>
      <point x="33" y="490"/>
      <point x="36" y="482" type="curve" smooth="yes"/>
      <point x="230" y="32" type="line"/>
      <point x="191" y="-54"/>
      <point x="180" y="-113"/>
      <point x="122" y="-113" type="curve" smooth="yes"/>
      <point x="94" y="-113" type="line"/>
      <point x="81" y="-113"/>
      <point x="71" y="-122"/>
      <point x="71" y="-136" type="curve" smooth="yes"/>
      <point x="71" y="-167" type="line" smooth="yes"/>
      <point x="71" y="-181"/>
      <point x="81" y="-190"/>
      <point x="94" y="-190" type="curve" smooth="yes"/>
    </contour>
  </outline>
</glyph>
<glyph name="dje-cy" format="1">
  <advance width="611"/>
  <unicode hex="0452"/>
  <outline>
    <contour>
      <point x="365" y="-225" type="line" smooth="yes"/>
      <point x="497" y="-225"/>
      <point x="541" y="-150"/>
      <point x="541" y="-40" type="curve" smooth="yes"/>
      <point x="541" y="302" type="line" smooth="yes"/>
      <point x="541" y="434"/>
      <point x="468" y="527"/>
      <point x="338" y="527" type="curve" smooth="yes"/>
      <point x="256" y="527"/>
      <point x="207" y="496"/>
      <point x="171" y="451" type="curve"/>
      <point x="171" y="562" type="line"/>
      <point x="232" y="562" type="line" smooth="yes"/>
      <point x="245" y="562"/>
      <point x="254" y="572"/>
      <point x="254" y="585" type="curve" smooth="yes"/>
      <point x="254" y="611" type="line" smooth="yes"/>
      <point x="254" y="624"/>
      <point x="245" y="634"/>
      <point x="232" y="634" type="curve" smooth="yes"/>
      <point x="171" y="634" type="line"/>
      <point x="171" y="687" type="line" smooth="yes"/>
      <point x="171" y="701"/>
      <point x="162" y="710"/>
      <point x="149" y="710" type="curve" smooth="yes"/>
      <point x="104" y="710" type="line" smooth="yes"/>
      <point x="90" y="710"/>
      <point x="81" y="701"/>
      <point x="81" y="687" type="curve" smooth="yes"/>
      <point x="81" y="634" type="line"/>
      <point x="21" y="634" type="line" smooth="yes"/>
      <point x="8" y="634"/>
      <point x="-1" y="624"/>
      <point x="-1" y="611" type="curve" smooth="yes"/>
      <point x="-1" y="585" type="line" smooth="yes"/>
      <point x="-1" y="572"/>
      <point x="8" y="562"/>
      <point x="21" y="562" type="curve" smooth="yes"/>
      <point x="81" y="562" type="line"/>
      <point x="81" y="23" type="line" smooth="yes"/>
      <point x="81" y="10"/>
      <point x="90" y="0"/>
      <point x="104" y="0" type="curve" smooth="yes"/>
      <point x="149" y="0" type="line" smooth="yes"/>
      <point x="162" y="0"/>
      <point x="171" y="10"/>
      <point x="171" y="23" type="curve" smooth="yes"/>
      <point x="171" y="297" type="line"/>
      <point x="171" y="392"/>
      <point x="229" y="449"/>
      <point x="313" y="449" type="curve" smooth="yes"/>
      <point x="402" y="449"/>
      <point x="451" y="391"/>
      <point x="451" y="297" type="curve" smooth="yes"/>
      <point x="451" y="-39" type="line" smooth="yes"/>
      <point x="451" y="-100"/>
      <point x="441" y="-147"/>
      <point x="366" y="-147" type="curve" smooth="yes"/>
      <point x="360" y="-147" type="line" smooth="yes"/>
      <point x="346" y="-147"/>
      <point x="337" y="-156"/>
      <point x="337" y="-170" type="curve" smooth="yes"/>
      <point x="337" y="-202" type="line" smooth="yes"/>
      <point x="337" y="-216"/>
      <point x="346" y="-225"/>
      <point x="360" y="-225" type="curve" smooth="yes"/>
    </contour>
  </outline>
</glyph>
<glyph name="emdash" format="1">
  <advance width="764"/>
  <unicode hex="2014"/>
  <outline>
    <contour>
      <point x="672" y="260" type="line" smooth="yes"/>
      <point x="685" y="260"/>
      <point x="695" y="269"/>
      <point x="695" y="282" type="curve" smooth="yes"/>
      <point x="695" y="318" type="line" smooth="yes"/>
      <point x="695" y="331"/>
      <point x="685" y="341"/>
      <point x="672" y="341" type="curve" smooth="yes"/>
      <point x="92" y="341" type="line" smooth="yes"/>
      <point x="79" y="341"/>
      <point x="69" y="331"/>
      <point x="69" y="318" type="curve" smooth="yes"/>
      <point x="69" y="282" type="line" smooth="yes"/>
      <point x="69" y="269"/>
      <point x="79" y="260"/>
      <point x="92" y="260" type="curve" smooth="yes"/>
    </contour>
  </outline>
</glyph>
<glyph name="daggerdbl" format="1">
  <advance width="471"/>
  <unicode hex="2021"/>
  <outline>
    <contour>
      <point x="253" y="0" type="line" smooth="yes"/>
      <point x="267" y="0"/>
      <point x="276" y="10"/>
      <point x="276" y="23" type="curve" smooth="yes"/>
      <point x="276" y="180" type="line"/>
      <point x="392" y="180" type="line" smooth="yes"/>
      <point x="406" y="180"/>
      <point x="415" y="190"/>
      <point x="415" y="203" type="curve" smooth="yes"/>
      <point x="415" y="237" type="line" smooth="yes"/>
      <point x="415" y="250"/>
      <point x="406" y="260"/>
      <point x="392" y="260" type="curve" smooth="yes"/>
      <point x="276" y="260" type="line"/>
      <point x="276" y="455" type="line"/>
      <point x="392" y="455" type="line" smooth="yes"/>
      <point x="406" y="455"/>
      <point x="415" y="464"/>
      <point x="415" y="478" type="curve" smooth="yes"/>
      <point x="415" y="511" type="line" smooth="yes"/>
      <point x="415" y="525"/>
      <point x="406" y="534"/>
      <point x="392" y="534" type="curve" smooth="yes"/>
      <point x="276" y="534" type="line"/>
      <point x="276" y="677" type="line" smooth="yes"/>
      <point x="276" y="691"/>
      <point x="267" y="700"/>
      <point x="253" y="700" type="curve" smooth="yes"/>
      <point x="217" y="700" type="line" smooth="yes"/>
      <point x="204" y="700"/>
      <point x="194" y="691"/>
      <point x="194" y="677" type="curve" smooth="yes"/>
      <point x="194" y="534" type="line"/>
      <point x="78" y="534" type="line" smooth="yes"/>
      <point x="65" y="534"/>
      <point x="55" y="525"/>
      <point x="55" y="511" type="curve" smooth="yes"/>
      <point x="55" y="478" type="line" smooth="yes"/>
      <point x="55" y="464"/>
      <point x="65" y="455"/>
      <point x="78" y="455" type="curve" smooth="yes"/>
      <point x="194" y="455" type="line"/>
      <point x="194" y="260" type="line"/>
      <point x="78" y="260" type="line" smooth="yes"/>
      <point x="65" y="260"/>
      <point x="55" y="250"/>
      <point x="55" y="237" type="curve" smooth="yes"/>
      <point x="55" y="203" type="line" smooth="yes"/>
      <point x="55" y="190"/>
      <point x="65" y="180"/>
      <point x="78" y="180" type="curve" smooth="yes"/>
      <point x="194" y="180" type="line"/>
      <point x="194" y="23" type="line" smooth="yes"/>
      <point x="194" y="10"/>
      <point x="204" y="0"/>
      <point x="217" y="0" type="curve" smooth="yes"/>
    </contour>
  </outline>
</glyph>
<glyph name="fourinferior" format="1">
  <advance width="342"/>
  <unicode hex="2084"/>
  <outline>
    <contour>
      <point x="239" y="-170" type="line" smooth="yes"/>
      <point x="252" y="-170"/>
      <point x="261" y="-161"/>
      <point x="261" y="-148" type="curve" smooth="yes"/>
      <point x="261" y="-100" type="line"/>
      <point x="296" y="-100" type="line" smooth="yes"/>
      <point x="309" y="-100"/>
      <point x="318" y="-91"/>
      <point x="318" y="-78" type="curve" smooth="yes"/>
      <point x="318" y="-57" type="line" smooth="yes"/>
      <point x="318" y="-44"/>
      <point x="309" y="-35"/>
      <point x="296" y="-35" type="curve" smooth="yes"/>
      <point x="261" y="-35" type="line"/>
      <point x="261" y="158" type="line" smooth="yes"/>
      <point x="261" y="171"/>
      <point x="252" y="180"/>
      <point x="239" y="180" type="curve" smooth="yes"/>
      <point x="199" y="180" type="line" smooth="yes"/>
      <point x="190" y="180"/>
      <point x="179" y="176"/>
      <point x="169" y="162" type="curve" smooth="yes"/>
      <point x="33" y="-26" type="line" smooth="yes"/>
      <point x="21" y="-42"/>
      <point x="21" y="-53"/>
      <point x="21" y="-56" type="curve" smooth="yes"/>
      <point x="21" y="-78" type="line" smooth="yes"/>
      <point x="21" y="-91"/>
      <point x="30" y="-100"/>
      <point x="43" y="-100" type="curve" smooth="yes"/>
      <point x="191" y="-100" type="line"/>
      <point x="191" y="-148" type="line" smooth="yes"/>
      <point x="191" y="-161"/>
      <point x="200" y="-170"/>
      <point x="213" y="-170" type="curve" smooth="yes"/>
    </contour>
    <contour>
      <point x="192" y="89" type="line"/>
      <point x="192" y="-36" type="line"/>
      <point x="105" y="-36" type="line"/>
    </contour>
  </outline>
</glyph>
<glyph name="fiveinferior" format="1">
  <advance width="332"/>
  <unicode hex="2085"/>
  <outline>
    <contour>
      <point x="253" y="-175"/>
      <point x="300" y="-114"/>
      <point x="300" y="-55" type="curve" smooth="yes"/>
      <point x="300" y="15"/>
      <point x="253" y="59"/>
      <point x="176" y="59" type="curve" smooth="yes"/>
      <point x="141" y="59"/>
      <point x="125" y="51"/>
      <point x="116" y="47" type="curve"/>
      <point x="123" y="115" type="line"/>
      <point x="261" y="115" type="line" smooth="yes"/>
      <point x="274" y="115"/>
      <point x="283" y="124"/>
      <point x="283" y="137" type="curve" smooth="yes"/>
      <point x="283" y="158" type="line" smooth="yes"/>
      <point x="283" y="171"/>
      <point x="274" y="180"/>
      <point x="261" y="180" type="curve" smooth="yes"/>
      <point x="86" y="180" type="line"/>
      <point x="72" y="179"/>
      <point x="63" y="167"/>
      <point x="61" y="153" type="curve" smooth="yes"/>
      <point x="46" y="6" type="line" smooth="yes"/>
      <point x="44" y="-8"/>
      <point x="54" y="-20"/>
      <point x="68" y="-20" type="curve" smooth="yes"/>
      <point x="105" y="-20" type="line" smooth="yes"/>
      <point x="123" y="-20"/>
      <point x="121" y="1"/>
      <point x="170" y="1" type="curve" smooth="yes"/>
      <point x="206" y="1"/>
      <point x="230" y="-21"/>
      <point x="230" y="-54" type="curve" smooth="yes"/>
      <point x="230" y="-86"/>
      <point x="205" y="-111"/>
      <point x="166" y="-111" type="curve" smooth="yes"/>
      <point x="118" y="-111"/>
      <point x="111" y="-96"/>
      <point x="97" y="-81" type="curve"/>
      <point x="92" y="-76"/>
      <point x="85" y="-72"/>
      <point x="76" y="-72" type="curve"/>
      <point x="47" y="-72" type="line" smooth="yes"/>
      <point x="41" y="-72"/>
      <point x="29" y="-78"/>
      <point x="30" y="-91" type="curve" smooth="yes"/>
      <point x="33" y="-131"/>
      <point x="79" y="-175"/>
      <point x="166" y="-175" type="curve" smooth="yes"/>
    </contour>
  </outline>
</glyph>
<glyph name="increment" format="1">
  <advance width="636"/>
  <unicode hex="2206"/>
  <outline>
    <contour>
      <point x="580" y="0" type="line" smooth="yes"/>
      <point x="595" y="0"/>
      <point x="607" y="12"/>
      <point x="607" y="27" type="curve" smooth="yes"/>
      <point x="607" y="47" type="line" smooth="yes"/>
      <point x="607" y="57"/>
      <point x="604" y="65"/>
      <point x="601" y="73" type="curve" smooth="yes"/>
      <point x="383" y="627" type="line" smooth="yes"/>
      <point x="377" y="641"/>
      <point x="365" y="660"/>
      <point x="338" y="660" type="curve" smooth="yes"/>
      <point x="298" y="660" type="line" smooth="yes"/>
      <point x="271" y="660"/>
      <point x="259" y="641"/>
      <point x="253" y="627" type="curve" smooth="yes"/>
      <point x="35" y="73" type="line" smooth="yes"/>
      <point x="32" y="65"/>
      <point x="29" y="57"/>
      <point x="29" y="47" type="curve" smooth="yes"/>
      <point x="29" y="27" type="line" smooth="yes"/>
      <point x="29" y="12"/>
      <point x="41" y="0"/>
      <point x="56" y="0" type="curve" smooth="yes"/>
    </contour>
    <contour>
      <point x="318" y="576" type="line"/>
      <point x="512" y="77" type="line"/>
      <point x="124" y="77" type="line"/>
    </contour>
  </outline>
</glyph>
<glyph name="infinity" format="1">
  <advance width="847"/>
  <unicode hex="221E"/>
  <outline>
    <contour>
      <point x="324" y="49"/>
      <point x="378" y="116"/>
      <point x="424" y="192" type="curve"/>
      <point x="470" y="115"/>
      <point x="525" y="49"/>
      <point x="610" y="49" type="curve" smooth="yes"/>
      <point x="739" y="49"/>
      <point x="788" y="158"/>
      <point x="788" y="271" type="curve" smooth="yes"/>
      <point x="788" y="384"/>
      <point x="739" y="493"/>
      <point x="609" y="493" type="curve" smooth="yes"/>
      <point x="525" y="493"/>
      <point x="471" y="421"/>
      <point x="424" y="341" type="curve"/>
      <point x="378" y="421"/>
      <point x="324" y="493"/>
      <point x="237" y="493" type="curve" smooth="yes"/>
      <point x="108" y="493"/>
      <point x="59" y="384"/>
      <point x="59" y="271" type="curve" smooth="yes"/>
      <point x="59" y="158"/>
      <point x="109" y="49"/>
      <point x="237" y="49" type="curve" smooth="yes"/>
    </contour>
    <contour>
      <point x="181" y="125"/>
      <point x="136" y="173"/>
      <point x="136" y="271" type="curve" smooth="yes"/>
      <point x="136" y="369"/>
      <point x="181" y="417"/>
      <point x="238" y="417" type="curve" smooth="yes"/>
      <point x="298" y="417"/>
      <point x="340" y="339"/>
      <point x="379" y="265" type="curve"/>
      <point x="343" y="197"/>
      <point x="299" y="125"/>
      <point x="238" y="125" type="curve" smooth="yes"/>
    </contour>
    <contour>
      <point x="546" y="124"/>
      <point x="503" y="198"/>
      <point x="467" y="267" type="curve"/>
      <point x="503" y="339"/>
      <point x="545" y="417"/>
      <point x="609" y="417" type="curve" smooth="yes"/>
      <point x="665" y="417"/>
      <point x="710" y="369"/>
      <point x="710" y="271" type="curve" smooth="yes"/>
      <point x="710" y="173"/>
      <point x="667" y="124"/>
      <point x="609" y="124" type="curve" smooth="yes"/>
    </contour>
  </outline>
</glyph>
<glyph name="notequal" format="1">
  <advance width="546"/>
  <unicode hex="2260"/>
  <outline>
    <contour>
      <point x="176" y="21" type="line"/>
      <point x="192" y="21"/>
      <point x="200" y="32"/>
      <point x="202" y="39" type="curve"/>
      <point x="243" y="137" type="line"/>
      <point x="463" y="137" type="line"/>
      <point x="476" y="137"/>
      <point x="486" y="146"/>
      <point x="486" y="160" type="curve"/>
      <point x="486" y="191" type="line"/>
      <point x="486" y="204"/>
      <point x="476" y="213"/>
      <point x="463" y="213" type="curve"/>
      <point x="275" y="213" type="line"/>
      <point x="347" y="387" type="line"/>
      <point x="463" y="387" type="line"/>
      <point x="476" y="387"/>
      <point x="486" y="396"/>
      <point x="486" y="410" type="curve"/>
      <point x="486" y="441" type="line"/>
      <point x="486" y="454"/>
      <point x="476" y="463"/>
      <point x="463" y="463" type="curve"/>
      <point x="379" y="463" type="line"/>
      <point x="415" y="548" type="line"/>
      <point x="417" y="553"/>
      <point x="418" y="558"/>
      <point x="418" y="560" type="curve" smooth="yes"/>
      <point x="418" y="571"/>
      <point x="409" y="580"/>
      <point x="398" y="580" type="curve"/>
      <point x="368" y="580" type="line"/>
      <point x="353" y="580"/>
      <point x="345" y="569"/>
      <point x="342" y="563" type="curve"/>
      <point x="300" y="463" type="line"/>
      <point x="83" y="463" type="line"/>
      <point x="70" y="463"/>
      <point x="60" y="454"/>
      <point x="60" y="441" type="curve"/>
      <point x="60" y="410" type="line"/>
      <point x="60" y="396"/>
      <point x="70" y="387"/>
      <point x="83" y="387" type="curve"/>
      <point x="269" y="387" type="line"/>
      <point x="196" y="213" type="line"/>
      <point x="83" y="213" type="line"/>
      <point x="70" y="213"/>
      <point x="60" y="204"/>
      <point x="60" y="191" type="curve"/>
      <point x="60" y="160" type="line"/>
      <point x="60" y="146"/>
      <point x="70" y="137"/>
      <point x="83" y="137" type="curve"/>
      <point x="165" y="137" type="line"/>
      <point x="130" y="53" type="line"/>
      <point x="128" y="48"/>
      <point x="127" y="43"/>
      <point x="127" y="41" type="curve" smooth="yes"/>
      <point x="127" y="30"/>
      <point x="136" y="21"/>
      <point x="147" y="21" type="curve"/>
    </contour>
  </outline>
</glyph>
<glyph name="Dieresis" format="1">
  <advance width="428"/>
  <unicode hex="F6CB"/>
  <outline>
    <contour>
      <point x="339" y="750" type="line" smooth="yes"/>
      <point x="352" y="750"/>
      <point x="362" y="759"/>
      <point x="362" y="772" type="curve" smooth="yes"/>
      <point x="362" y="825" type="line" smooth="yes"/>
      <point x="362" y="838"/>
      <point x="352" y="848"/>
      <point x="339" y="848" type="curve" smooth="yes"/>
      <point x="286" y="848" type="line" smooth="yes"/>
      <point x="273" y="848"/>
      <point x="264" y="838"/>
      <point x="264" y="825" type="curve" smooth="yes"/>
      <point x="264" y="772" type="line" smooth="yes"/>
      <point x="264" y="759"/>
      <point x="273" y="750"/>
      <point x="286" y="750" type="curve" smooth="yes"/>
    </contour>
    <contour>
      <point x="142" y="750" type="line" smooth="yes"/>
      <point x="155" y="750"/>
      <point x="165" y="759"/>
      <point x="165" y="772" type="curve" smooth="yes"/>
      <point x="165" y="825" type="line" smooth="yes"/>
      <point x="165" y="838"/>
      <point x="155" y="848"/>
      <point x="142" y="848" type="curve" smooth="yes"/>
      <point x="89" y="848" type="line" smooth="yes"/>
      <point x="76" y="848"/>
      <point x="67" y="838"/>
      <point x="67" y="825" type="curve" smooth="yes"/>
      <point x="67" y="772" type="line" smooth="yes"/>
      <point x="67" y="759"/>
      <point x="76" y="750"/>
      <point x="89" y="750" type="curve" smooth="yes"/>
    </contour>
  </outline>
</glyph>
<glyph name="Macron" format="1">
  <advance width="406"/>
  <unicode hex="F6D0"/>
  <outline>
    <contour>
      <point x="318" y="750" type="line" smooth="yes"/>
      <point x="331" y="750"/>
      <point x="340" y="759"/>
      <point x="340" y="772" type="curve" smooth="yes"/>
      <point x="340" y="808" type="line" smooth="yes"/>
      <point x="340" y="821"/>
      <point x="331" y="830"/>
      <point x="318" y="830" type="curve" smooth="yes"/>
      <point x="89" y="830" type="line" smooth="yes"/>
      <point x="76" y="830"/>
      <point x="67" y="821"/>
      <point x="67" y="808" type="curve" smooth="yes"/>
      <point x="67" y="772" type="line" smooth="yes"/>
      <point x="67" y="759"/>
      <point x="76" y="750"/>
      <point x="89" y="750" type="curve" smooth="yes"/>
    </contour>
  </outline>
</glyph>
<glyph name="fl" format="1">
  <advance width="595"/>
  <unicode hex="FB02"/>
  <outline>
    <contour>
      <point x="193" y="0" type="line" smooth="yes"/>
      <point x="206" y="0"/>
      <point x="216" y="10"/>
      <point x="216" y="23" type="curve" smooth="yes"/>
      <point x="216" y="443" type="line"/>
      <point x="430" y="443" type="line"/>
      <point x="430" y="23" type="line" smooth="yes"/>
      <point x="430" y="10"/>
      <point x="440" y="0"/>
      <point x="453" y="0" type="curve" smooth="yes"/>
      <point x="496" y="0" type="line" smooth="yes"/>
      <point x="510" y="0"/>
      <point x="519" y="10"/>
      <point x="519" y="23" type="curve" smooth="yes"/>
      <point x="519" y="717" type="line" smooth="yes"/>
      <point x="519" y="731"/>
      <point x="510" y="740"/>
      <point x="496" y="740" type="curve" smooth="yes"/>
      <point x="453" y="740" type="line" smooth="yes"/>
      <point x="440" y="740"/>
      <point x="430" y="731"/>
      <point x="430" y="717" type="curve" smooth="yes"/>
      <point x="430" y="520" type="line"/>
      <point x="216" y="520" type="line"/>
      <point x="216" y="565" type="line" smooth="yes"/>
      <point x="216" y="628"/>
      <point x="233" y="663"/>
      <point x="298" y="663" type="curve" smooth="yes"/>
      <point x="351" y="663" type="line" smooth="yes"/>
      <point x="365" y="663"/>
      <point x="374" y="672"/>
      <point x="374" y="685" type="curve" smooth="yes"/>
      <point x="374" y="717" type="line" smooth="yes"/>
      <point x="374" y="731"/>
      <point x="365" y="740"/>
      <point x="351" y="740" type="curve" smooth="yes"/>
      <point x="296" y="740" type="line" smooth="yes"/>
      <point x="170" y="740"/>
      <point x="127" y="672"/>
      <point x="127" y="570" type="curve" smooth="yes"/>
      <point x="127" y="520" type="line"/>
      <point x="41" y="520" type="line" smooth="yes"/>
      <point x="28" y="520"/>
      <point x="18" y="511"/>
      <point x="18" y="497" type="curve" smooth="yes"/>
      <point x="18" y="465" type="line" smooth="yes"/>
      <point x="18" y="452"/>
      <point x="28" y="443"/>
      <point x="41" y="443" type="curve" smooth="yes"/>
      <point x="127" y="443" type="line"/>
      <point x="127" y="23" type="line" smooth="yes"/>
      <point x="127" y="10"/>
      <point x="136" y="0"/>
      <point x="149" y="0" type="curve" smooth="yes"/>
    </contour>
  </outline>
</glyph>
<glyph name="Tilde" format="1">
  <advance width="412"/>
  <outline>
    <contour>
      <point x="309" y="745"/>
      <point x="342" y="798"/>
      <point x="342" y="837" type="curve" smooth="yes"/>
      <point x="342" y="845"/>
      <point x="336" y="853"/>
      <point x="326" y="853" type="curve" smooth="yes"/>
      <point x="295" y="853" type="line" smooth="yes"/>
      <point x="273" y="853"/>
      <point x="278" y="823"/>
      <point x="253" y="823" type="curve" smooth="yes"/>
      <point x="222" y="823"/>
      <point x="201" y="858"/>
      <point x="151" y="858" type="curve" smooth="yes"/>
      <point x="99" y="858"/>
      <point x="67" y="806"/>
      <point x="67" y="766" type="curve" smooth="yes"/>
      <point x="67" y="758"/>
      <point x="74" y="750"/>
      <point x="84" y="750" type="curve" smooth="yes"/>
      <point x="114" y="750" type="line" smooth="yes"/>
      <point x="135" y="750"/>
      <point x="132" y="779"/>
      <point x="157" y="779" type="curve" smooth="yes"/>
      <point x="187" y="779"/>
      <point x="209" y="745"/>
      <point x="257" y="745" type="curve" smooth="yes"/>
    </contour>
  </outline>
</glyph>
<glyph name="bracketright.cap" format="1">
  <advance width="340"/>
  <outline>
    <contour>
      <point x="239" y="-117" type="line" smooth="yes"/>
      <point x="253" y="-117"/>
      <point x="262" y="-108"/>
      <point x="262" y="-94" type="curve" smooth="yes"/>
      <point x="262" y="795" type="line" smooth="yes"/>
      <point x="262" y="809"/>
      <point x="253" y="818"/>
      <point x="239" y="818" type="curve" smooth="yes"/>
      <point x="63" y="818" type="line" smooth="yes"/>
      <point x="50" y="818"/>
      <point x="40" y="809"/>
      <point x="40" y="795" type="curve" smooth="yes"/>
      <point x="40" y="762" type="line" smooth="yes"/>
      <point x="40" y="749"/>
      <point x="50" y="739"/>
      <point x="63" y="739" type="curve" smooth="yes"/>
      <point x="176" y="739" type="line"/>
      <point x="176" y="-35" type="line"/>
      <point x="63" y="-35" type="line" smooth="yes"/>
      <point x="50" y="-35"/>
      <point x="40" y="-45"/>
      <point x="40" y="-58" type="curve" smooth="yes"/>
      <point x="40" y="-94" type="line" smooth="yes"/>
      <point x="40" y="-108"/>
      <point x="50" y="-117"/>
      <point x="63" y="-117" type="curve" smooth="yes"/>
    </contour>
  </outline>
</glyph>
<glyph name="guillemetright.cap" format="1">
  <advance width="619"/>
  <outline>
    <contour>
      <point x="345" y="89"/>
      <point x="353" y="93"/>
      <point x="361" y="100" type="curve" smooth="yes"/>
      <point x="554" y="287" type="line" smooth="yes"/>
      <point x="566" y="299"/>
      <point x="569" y="309"/>
      <point x="570" y="320" type="curve" smooth="yes"/>
      <point x="570" y="345" type="line" smooth="yes"/>
      <point x="569" y="356"/>
      <point x="566" y="367"/>
      <point x="554" y="379" type="curve" smooth="yes"/>
      <point x="361" y="565" type="line" smooth="yes"/>
      <point x="353" y="572"/>
      <point x="345" y="576"/>
      <point x="338" y="576" type="curve" smooth="yes"/>
      <point x="326" y="576"/>
      <point x="318" y="568"/>
      <point x="318" y="556" type="curve" smooth="yes"/>
      <point x="318" y="518" type="line" smooth="yes"/>
      <point x="318" y="501"/>
      <point x="323" y="494"/>
      <point x="336" y="481" type="curve" smooth="yes"/>
      <point x="488" y="333" type="line"/>
      <point x="336" y="184" type="line" smooth="yes"/>
      <point x="323" y="171"/>
      <point x="318" y="164"/>
      <point x="318" y="147" type="curve" smooth="yes"/>
      <point x="318" y="109" type="line" smooth="yes"/>
      <point x="318" y="97"/>
      <point x="326" y="89"/>
      <point x="338" y="89" type="curve" smooth="yes"/>
    </contour>
    <contour>
      <point x="89" y="89"/>
      <point x="97" y="93"/>
      <point x="105" y="100" type="curve" smooth="yes"/>
      <point x="298" y="287" type="line" smooth="yes"/>
      <point x="310" y="299"/>
      <point x="313" y="309"/>
      <point x="314" y="320" type="curve" smooth="yes"/>
      <point x="314" y="345" type="line" smooth="yes"/>
      <point x="313" y="356"/>
      <point x="310" y="367"/>
      <point x="298" y="379" type="curve" smooth="yes"/>
      <point x="105" y="565" type="line" smooth="yes"/>
      <point x="97" y="572"/>
      <point x="89" y="576"/>
      <point x="82" y="576" type="curve" smooth="yes"/>
      <point x="70" y="576"/>
      <point x="62" y="568"/>
      <point x="62" y="556" type="curve" smooth="yes"/>
      <point x="62" y="518" type="line" smooth="yes"/>
      <point x="62" y="501"/>
      <point x="67" y="494"/>
      <point x="80" y="481" type="curve" smooth="yes"/>
      <point x="232" y="333" type="line"/>
      <point x="80" y="184" type="line" smooth="yes"/>
      <point x="67" y="171"/>
      <point x="62" y="164"/>
      <point x="62" y="147" type="curve" smooth="yes"/>
      <point x="62" y="109" type="line" smooth="yes"/>
      <point x="62" y="97"/>
      <point x="70" y="89"/>
      <point x="82" y="89" type="curve" smooth="yes"/>
    </contour>
  </outline>
</glyph>
<glyph name="parenleft.otlf" format="1">
  <advance width="617"/>
  <outline>
    <contour>
      <point x="436" y="-117"/>
      <point x="447" y="-107"/>
      <point x="447" y="-94" type="curve" smooth="yes"/>
      <point x="447" y="-61" type="line" smooth="yes"/>
      <point x="447" y="-49"/>
      <point x="436" y="-39"/>
      <point x="426" y="-39" type="curve" smooth="yes"/>
      <point x="315" y="-37"/>
      <point x="277" y="63"/>
      <point x="277" y="351" type="curve" smooth="yes"/>
      <point x="277" y="639"/>
      <point x="315" y="738"/>
      <point x="426" y="740" type="curve" smooth="yes"/>
      <point x="436" y="740"/>
      <point x="447" y="750"/>
      <point x="447" y="762" type="curve" smooth="yes"/>
      <point x="447" y="795" type="line" smooth="yes"/>
      <point x="447" y="808"/>
      <point x="436" y="818"/>
      <point x="424" y="818" type="curve" smooth="yes"/>
      <point x="251" y="818"/>
      <point x="193" y="677"/>
      <point x="193" y="351" type="curve" smooth="yes"/>
      <point x="193" y="25"/>
      <point x="251" y="-117"/>
      <point x="424" y="-117" type="curve" smooth="yes"/>
    </contour>
  </outline>
</glyph>
<glyph name="parenright.cap" format="1">
  <advance width="355"/>
  <outline>
    <contour>
      <point x="234" y="-117"/>
      <point x="292" y="25"/>
      <point x="292" y="351" type="curve" smooth="yes"/>
      <point x="292" y="677"/>
      <point x="234" y="818"/>
      <point x="61" y="818" type="curve" smooth="yes"/>
      <point x="48" y="818"/>
      <point x="38" y="808"/>
      <point x="38" y="795" type="curve" smooth="yes"/>
      <point x="38" y="762" type="line" smooth="yes"/>
      <point x="38" y="750"/>
      <point x="48" y="740"/>
      <point x="58" y="740" type="curve" smooth="yes"/>
      <point x="170" y="738"/>
      <point x="207" y="639"/>
      <point x="207" y="351" type="curve" smooth="yes"/>
      <point x="207" y="63"/>
      <point x="170" y="-37"/>
      <point x="58" y="-39" type="curve" smooth="yes"/>
      <point x="48" y="-39"/>
      <point x="38" y="-49"/>
      <point x="38" y="-61" type="curve" smooth="yes"/>
      <point x="38" y="-94" type="line" smooth="yes"/>
      <point x="38" y="-107"/>
      <point x="48" y="-117"/>
      <point x="61" y="-117" type="curve" smooth="yes"/>
    </contour>
  </outline>
</glyph>
<glyph name="parenright.otlf" format="1">
  <advance width="617"/>
  <outline>
    <contour>
      <point x="366" y="-117"/>
      <point x="424" y="25"/>
      <point x="424" y="351" type="curve" smooth="yes"/>
      <point x="424" y="677"/>
      <point x="366" y="818"/>
      <point x="193" y="818" type="curve" smooth="yes"/>
      <point x="180" y="818"/>
      <point x="170" y="808"/>
      <point x="170" y="795" type="curve" smooth="yes"/>
      <point x="170" y="762" type="line" smooth="yes"/>
      <point x="170" y="750"/>
      <point x="180" y="740"/>
      <point x="190" y="740" type="curve" smooth="yes"/>
      <point x="302" y="738"/>
      <point x="339" y="639"/>
      <point x="339" y="351" type="curve" smooth="yes"/>
      <point x="339" y="63"/>
      <point x="302" y="-37"/>
      <point x="190" y="-39" type="curve" smooth="yes"/>
      <point x="180" y="-39"/>
      <point x="170" y="-49"/>
      <point x="170" y="-61" type="curve" smooth="yes"/>
      <point x="170" y="-94" type="line" smooth="yes"/>
      <point x="170" y="-107"/>
      <point x="180" y="-117"/>
      <point x="193" y="-117" type="curve" smooth="yes"/>
    </contour>
  </outline>
</glyph>
<glyph name="plus.cap" format="1">
  <advance width="624"/>
  <outline>
    <contour>
      <point x="328" y="80" type="line" smooth="yes"/>
      <point x="342" y="80"/>
      <point x="351" y="90"/>
      <point x="351" y="103" type="curve" smooth="yes"/>
      <point x="351" y="313" type="line"/>
      <point x="558" y="313" type="line" smooth="yes"/>
      <point x="572" y="313"/>
      <point x="581" y="322"/>
      <point x="581" y="335" type="curve" smooth="yes"/>
      <point x="581" y="365" type="line" smooth="yes"/>
      <point x="581" y="379"/>
      <point x="572" y="388"/>
      <point x="558" y="388" type="curve" smooth="yes"/>
      <point x="351" y="388" type="line"/>
      <point x="351" y="592" type="line" smooth="yes"/>
      <point x="351" y="605"/>
      <point x="342" y="614"/>
      <point x="328" y="614" type="curve" smooth="yes"/>
      <point x="295" y="614" type="line" smooth="yes"/>
      <point x="282" y="614"/>
      <point x="272" y="605"/>
      <point x="272" y="592" type="curve" smooth="yes"/>
      <point x="272" y="388" type="line"/>
      <point x="66" y="388" type="line" smooth="yes"/>
      <point x="53" y="388"/>
      <point x="43" y="379"/>
      <point x="43" y="365" type="curve" smooth="yes"/>
      <point x="43" y="335" type="line" smooth="yes"/>
      <point x="43" y="322"/>
      <point x="53" y="313"/>
      <point x="66" y="313" type="curve" smooth="yes"/>
      <point x="272" y="313" type="line"/>
      <point x="272" y="103" type="line" smooth="yes"/>
      <point x="272" y="90"/>
      <point x="282" y="80"/>
      <point x="295" y="80" type="curve" smooth="yes"/>
    </contour>
  </outline>
</glyph>
